<svg width="201" height="200" viewBox="0 0 201 200" fill="none" xmlns="http://www.w3.org/2000/svg">
<path d="M195.447 30.5002L105.694 190.997C103.839 194.311 99.078 194.33 97.1983 191.035L5.66393 30.5189C3.61236 26.922 6.68268 22.5705 10.7592 23.297L100.609 39.3549C101.183 39.4592 101.77 39.4592 102.344 39.3549L190.312 23.322C194.372 22.583 197.461 26.8986 195.447 30.5002Z" fill="url(#paint0_linear_610_96)"/>
<path d="M129.474 0.0470105L63.0588 13.0595C62.5287 13.1631 62.048 13.4398 61.6922 13.8462C61.3364 14.2526 61.1257 14.7657 61.0932 15.3048L57.0041 84.3173C56.9821 84.6958 57.0486 85.0742 57.1981 85.4225C57.3477 85.7708 57.5763 86.0796 57.8659 86.3243C58.1555 86.5689 58.498 86.7429 58.8664 86.8322C59.2348 86.9216 59.619 86.924 59.9885 86.8392L78.4822 82.5658C78.8805 82.4742 79.2954 82.4842 79.6889 82.5947C80.0823 82.7052 80.4417 82.9128 80.7341 83.1983C81.0264 83.4838 81.2424 83.8382 81.3622 84.2289C81.482 84.6196 81.5018 85.0342 81.4197 85.4345L75.9244 112.339C75.8404 112.753 75.8654 113.182 75.9968 113.584C76.1283 113.985 76.3618 114.346 76.6744 114.63C76.987 114.914 77.368 115.113 77.7803 115.205C78.1925 115.298 78.6217 115.282 79.026 115.16L90.4447 111.686C92.215 111.149 93.9182 112.705 93.5463 114.517L84.8119 156.778C84.2682 159.422 87.7838 160.863 89.2494 158.597L90.226 157.085L144.351 49.0689C145.26 47.2564 143.693 45.1939 141.71 45.5783L122.671 49.2533C122.262 49.3329 121.838 49.3058 121.442 49.1746C121.046 49.0435 120.69 48.8127 120.409 48.5044C120.127 48.1961 119.93 47.8207 119.836 47.4142C119.741 47.0076 119.753 46.5837 119.87 46.1829L132.292 3.11732C132.408 2.71521 132.42 2.28978 132.324 1.88207C132.229 1.47435 132.03 1.09809 131.747 0.789553C131.464 0.481018 131.106 0.250617 130.708 0.120558C130.31 -0.00950107 129.885 -0.0348308 129.474 0.0470105Z" fill="url(#paint1_linear_610_96)"/>
<defs>
<linearGradient id="paint0_linear_610_96" x1="3.42674" y1="17.562" x2="115.136" y2="169.272" gradientUnits="userSpaceOnUse">
<stop stop-color="#41D1FF"/>
<stop offset="1" stop-color="#BD34FE"/>
</linearGradient>
<linearGradient id="paint1_linear_610_96" x1="81.5214" y1="3.57823" x2="101.729" y2="142.2" gradientUnits="userSpaceOnUse">
<stop stop-color="#FFEA83"/>
<stop offset="0.083" stop-color="#FFDD35"/>
<stop offset="1" stop-color="#FFA800"/>
</linearGradient>
</defs>
</svg>
