<svg width="128" height="128" viewBox="0 0 128 128" fill="none" xmlns="http://www.w3.org/2000/svg">
<g clip-path="url(#clip0_1126_24)">
<path d="M64 128C99.3462 128 128 99.3462 128 64C128 28.6538 99.3462 0 64 0C28.6538 0 0 28.6538 0 64C0 99.3462 28.6538 128 64 128Z" fill="black"/>
<path d="M106.315 112.012L49.1654 38.3984H38.3984V89.5774H47.0124V49.3374L99.5524 117.221C101.92 115.638 104.18 113.897 106.315 112.012Z" fill="url(#paint0_linear_1126_24)"/>
<path d="M81.7773 38.3984H90.3103V89.5984H81.7773V38.3984Z" fill="url(#paint1_linear_1126_24)"/>
</g>
<defs>
<linearGradient id="paint0_linear_1126_24" x1="77.5094" y1="82.8428" x2="102.754" y2="114.132" gradientUnits="userSpaceOnUse">
<stop stop-color="white"/>
<stop offset="1" stop-color="white" stop-opacity="0"/>
</linearGradient>
<linearGradient id="paint1_linear_1126_24" x1="86.0437" y1="38.3984" x2="85.9007" y2="75.9983" gradientUnits="userSpaceOnUse">
<stop stop-color="white"/>
<stop offset="1" stop-color="white" stop-opacity="0"/>
</linearGradient>
<clipPath id="clip0_1126_24">
<rect width="128" height="128" fill="white"/>
</clipPath>
</defs>
</svg>
